<svg width="70" height="52" viewBox="0 0 70 52" version="1.1" xmlns="http://www.w3.org/2000/svg" xmlns:xlink="http://www.w3.org/1999/xlink">
<title>SP_Icon_5</title>
<desc>Created using Figma</desc>
<g id="Canvas" transform="translate(-4673 4667)">
<g id="SP_Icon_5">
<g id="cottage">
<g id="Group">
<g id="Group">
<g id="Group">
<g id="Vector">
<use xlink:href="#path0_fill" transform="matrix(-1 1.21945e-16 1.22986e-16 1 4695.38 -4656.71)" fill="#2D9CDB"/>
</g>
<g id="Vector">
<use xlink:href="#path1_fill" transform="matrix(-1 1.21945e-16 1.22986e-16 1 4705.71 -4652.42)" fill="#2D9CDB"/>
</g>
<g id="Vector">
<use xlink:href="#path2_fill" transform="matrix(-1 1.21945e-16 1.22986e-16 1 4716.04 -4617.25)" fill="#2D9CDB"/>
</g>
<g id="Vector">
<use xlink:href="#path3_fill" transform="matrix(-1 1.21945e-16 1.22986e-16 1 4717.77 -4663.57)" fill="#2D9CDB"/>
</g>
<g id="Vector">
<use xlink:href="#path4_fill" transform="matrix(-1 1.21945e-16 1.22986e-16 1 4716.04 -4620.68)" fill="#2D9CDB"/>
</g>
<g id="Vector">
<use xlink:href="#path5_fill" transform="matrix(-1 1.21945e-16 1.22986e-16 1 4709.16 -4651.56)" fill="#2D9CDB"/>
</g>
<g id="Vector">
<use xlink:href="#path6_fill" transform="matrix(-1 1.21945e-16 1.22986e-16 1 4724.65 -4617.25)" fill="#2D9CDB"/>
</g>
<g id="Vector">
<use xlink:href="#path7_fill" transform="matrix(-1 1.21945e-16 1.22986e-16 1 4690.22 -4625.82)" fill="#2D9CDB"/>
</g>
<g id="Vector">
<use xlink:href="#path8_fill" transform="matrix(-1 1.21945e-16 1.22986e-16 1 4685.05 -4630.97)" fill="#2D9CDB"/>
</g>
<g id="Vector">
<use xlink:href="#path9_fill" transform="matrix(-1 1.21945e-16 1.22986e-16 1 4710.88 -4625.82)" fill="#2D9CDB"/>
</g>
<g id="Vector">
<use xlink:href="#path10_fill" transform="matrix(-1 1.21945e-16 1.22986e-16 1 4714.32 -4646.41)" fill="#2D9CDB"/>
</g>
<g id="Vector">
<use xlink:href="#path11_fill" transform="matrix(-1 1.21945e-16 1.22986e-16 1 4676.44 -4617.25)" fill="#2D9CDB"/>
</g>
<g id="Vector">
<use xlink:href="#path12_fill" transform="matrix(-1 1.21945e-16 1.22986e-16 1 4724.65 -4667)" fill="#2D9CDB"/>
</g>
<g id="Vector">
<use xlink:href="#path13_fill" transform="matrix(-1 1.21945e-16 1.22986e-16 1 4712.6 -4636.12)" fill="#2D9CDB"/>
</g>
<g id="Vector">
<use xlink:href="#path14_fill" transform="matrix(-1 1.21945e-16 1.22986e-16 1 4712.6 -4636.12)" fill="#2D9CDB"/>
</g>
<g id="Vector">
<use xlink:href="#path15_fill" transform="matrix(-1 1.21945e-16 1.22986e-16 1 4690.22 -4636.12)" fill="#2D9CDB"/>
</g>
<g id="Vector">
<use xlink:href="#path16_fill" transform="matrix(-1 1.21945e-16 1.22986e-16 1 4688.5 -4641.26)" fill="#2D9CDB"/>
</g>
<g id="Vector">
<use xlink:href="#path17_fill" transform="matrix(-1 1.21945e-16 1.22986e-16 1 4690.22 -4646.41)" fill="#2D9CDB"/>
</g>
</g>
</g>
</g>
</g>
<g id="hydro-power">
<g id="Group">
<g id="Group">
<g id="Group">
<g id="Vector">
<use xlink:href="#path18_fill" transform="translate(4730.09 -4650.88)" fill="#2D9CDB"/>
</g>
</g>
</g>
</g>
</g>
<g id="Line (Stroke)">
<use xlink:href="#path19_fill" transform="matrix(-1.84479e-16 -1 1 -1.82918e-16 4735.09 -4617.19)" fill="#2D9CDB"/>
</g>
<g id="Vector (Stroke)">
<use xlink:href="#path20_fill" transform="matrix(-1 1.21945e-16 -1.22986e-16 -1 4738.77 -4615.87)" fill="#2D9CDB"/>
</g>
<g id="Line (Stroke)">
<use xlink:href="#path19_fill" transform="matrix(3.07465e-16 1 -1 3.04863e-16 4736.56 -4665.68)" fill="#2D9CDB"/>
</g>
<g id="Vector (Stroke)">
<use xlink:href="#path20_fill" transform="matrix(1 -2.43891e-16 2.45972e-16 1 4732.88 -4667)" fill="#2D9CDB"/>
</g>
</g>
</g>
<defs>
<path id="path0_fill" d="M 2.58256 1.71563C 3.05862 1.71563 3.44338 1.3313 3.44338 0.857813C 3.44338 0.384322 3.05862 -6.74938e-08 2.58256 -6.74938e-08L 0.860821 -6.74938e-08C 0.384761 -6.74938e-08 9.8517e-07 0.384322 9.8517e-07 0.857813C 9.8517e-07 1.3313 0.384761 1.71563 0.860821 1.71563L 2.58256 1.71563Z"/>
<path id="path1_fill" d="M 6.15731e-08 6.86281L 6.15731e-08 12.0099C 6.15731e-08 12.4834 0.38567 12.8677 0.860821 12.8677L 12.9128 12.8677C 13.3889 12.8677 13.7736 12.4834 13.7736 12.0099L 13.7736 6.86281C 13.7736 3.0788 10.684 7.36296e-07 6.88677 7.36296e-07C 3.08969 7.36296e-07 6.15731e-08 3.0788 6.15731e-08 6.86281ZM 6.02605 11.152L 1.72174 11.152L 1.72174 7.72062L 6.02605 7.72062L 6.02605 11.152ZM 6.02605 6.00489L 1.79922 6.00489C 2.16421 3.85428 3.86789 2.15655 6.02605 1.79283L 6.02605 6.00489ZM 7.74769 1.79293C 9.90585 2.15665 11.6095 3.85438 11.9745 6.005L 7.74769 6.005L 7.74769 1.79293ZM 7.74769 7.72062L 12.052 7.72062L 12.052 11.152L 7.74769 11.152L 7.74769 7.72062Z"/>
<path id="path2_fill" d="M 37.0167 1.17807e-06L 0.860821 1.17807e-06C 0.38567 1.17807e-06 -1.47775e-07 0.384322 -1.47775e-07 0.857814C -1.47775e-07 1.33131 0.38567 1.71563 0.860821 1.71563L 37.0167 1.71563C 37.4928 1.71563 37.8775 1.33131 37.8775 0.857814C 37.8775 0.384322 37.4928 1.17807e-06 37.0167 1.17807e-06Z"/>
<path id="path3_fill" d="M 0.860821 5.14708L 1.72164 5.14708L 1.72164 9.43635C 1.72164 9.90984 2.10731 10.2942 2.58246 10.2942C 3.05761 10.2942 3.44328 9.90984 3.44328 9.43635L 3.44328 4.28927C 3.44328 3.81578 3.05761 3.43146 2.58246 3.43146L 1.72164 3.43146L 1.72164 1.71563L 6.88677 1.71563L 6.88677 3.43135L 6.02595 3.43135C 5.5508 3.43135 5.16513 3.81568 5.16513 4.28917L 5.16513 6.0049C 5.16513 6.47839 5.5508 6.86271 6.02595 6.86271C 6.5011 6.86271 6.88677 6.47839 6.88677 6.0049L 6.88677 5.14708L 7.74759 5.14708C 8.22274 5.14708 8.60841 4.76276 8.60841 4.28927L 8.60841 0.857813C 8.60841 0.384322 8.22274 1.04309e-07 7.74759 1.04309e-07L 0.860821 1.04309e-07C 0.38567 1.04309e-07 -2.83236e-07 0.384322 -2.83236e-07 0.857813L -2.83236e-07 4.28917C -2.83236e-07 4.76276 0.38567 5.14708 0.860821 5.14708Z"/>
<path id="path4_fill" d="M 0.860821 1.71563L 2.58256 1.71563C 3.05771 1.71563 3.44338 1.33131 3.44338 0.857814C 3.44338 0.384323 3.05771 -1.44805e-06 2.58256 -1.44805e-06L 0.860821 -1.44805e-06C 0.38567 -1.44805e-06 -1.27989e-07 0.384323 -1.27989e-07 0.857814C -0.000101009 1.33131 0.385569 1.71563 0.860821 1.71563Z"/>
<path id="path5_fill" d="M 2.58256 -3.19062e-07L 0.86082 -3.19062e-07C 0.385669 -3.19062e-07 5.04899e-07 0.384322 5.04899e-07 0.857814C 5.04899e-07 1.33131 0.385669 1.71563 0.86082 1.71563L 2.58256 1.71563C 3.05771 1.71563 3.44338 1.33131 3.44338 0.857814C 3.44338 0.384322 3.05781 -3.19062e-07 2.58256 -3.19062e-07Z"/>
<path id="path6_fill" d="M 6.02595 1.17807e-06L 0.860821 1.17807e-06C 0.385669 1.17807e-06 9.58351e-12 0.384322 9.58351e-12 0.857814C 9.58351e-12 1.33131 0.385669 1.71563 0.860821 1.71563L 6.02595 1.71563C 6.5011 1.71563 6.88677 1.33131 6.88677 0.857814C 6.88677 0.384322 6.5012 1.17807e-06 6.02595 1.17807e-06Z"/>
<path id="path7_fill" d="M 0.860819 1.71563L 6.02595 1.71563C 6.50201 1.71563 6.88677 1.3313 6.88677 0.857813C 6.88677 0.384322 6.50201 3.92691e-07 6.02595 3.92691e-07L 0.860819 3.92691e-07C 0.38476 3.92691e-07 -1.47775e-07 0.384322 -1.47775e-07 0.857813C -1.47775e-07 1.3313 0.38476 1.71563 0.860819 1.71563Z"/>
<path id="path8_fill" d="M 2.58256 1.71563C 3.05862 1.71563 3.44338 1.33131 3.44338 0.857815C 3.44338 0.384323 3.05862 -8.34469e-07 2.58256 -8.34469e-07L 0.86082 -8.34469e-07C 0.384761 -8.34469e-07 3.69439e-07 0.384323 3.69439e-07 0.857815C 3.69439e-07 1.33131 0.384761 1.71563 0.86082 1.71563L 2.58256 1.71563Z"/>
<path id="path9_fill" d="M 3.44338 0.857813C 3.44338 0.384322 3.05771 3.92691e-07 2.58256 3.92691e-07L 0.860821 3.92691e-07C 0.385669 3.92691e-07 -4.55641e-07 0.384322 -4.55641e-07 0.857813C -4.55641e-07 1.3313 0.385669 1.71563 0.860821 1.71563L 2.58256 1.71563C 3.05771 1.71563 3.44338 1.3313 3.44338 0.857813Z"/>
<path id="path10_fill" d="M 4.31012e-08 0.857814C 4.31012e-08 1.33131 0.385669 1.71563 0.86082 1.71563L 6.02595 1.71563C 6.5011 1.71563 6.88677 1.33131 6.88677 0.857814C 6.88677 0.384323 6.5011 1.05619e-07 6.02595 1.05619e-07L 0.86082 1.05619e-07C 0.385669 -0.000100423 4.31012e-08 0.384222 4.31012e-08 0.857814Z"/>
<path id="path11_fill" d="M 2.58256 1.17807e-06L 0.860821 1.17807e-06C 0.384762 1.17807e-06 -1.20683e-06 0.384322 -1.20683e-06 0.857814C -1.20683e-06 1.33131 0.384762 1.71563 0.860821 1.71563L 2.58256 1.71563C 3.05862 1.71563 3.44339 1.33131 3.44339 0.857814C 3.44339 0.384322 3.05862 1.17807e-06 2.58256 1.17807e-06Z"/>
<path id="path12_fill" d="M 50.7906 26.5935C 51.0111 26.5935 51.2314 26.5095 51.3993 26.3422C 51.7359 26.0067 51.7359 25.4646 51.3993 25.1292L 46.235 19.983C 46.2341 19.9821 46.2341 19.9821 46.2333 19.9821L 41.9307 15.6938L 41.929 15.6921L 26.4345 0.251523C 26.0978 -0.0838411 25.5538 -0.0838411 25.2172 0.251523L 14.887 10.5448L 14.887 10.5457L 0.252405 25.1291C -0.084135 25.4646 -0.084135 26.0067 0.252405 26.3421C 0.589046 26.6776 1.1331 26.6776 1.46964 26.3421L 5.16533 22.6593L 5.16533 47.1818C 5.16533 47.6552 5.551 48.0396 6.02615 48.0396C 6.5013 48.0396 6.88697 47.6552 6.88697 47.1818L 6.88697 42.8926L 11.1913 42.8926C 11.6664 42.8926 12.0521 42.5083 12.0521 42.0348C 12.0521 41.5613 11.6664 41.177 11.1913 41.177L 6.88707 41.177L 6.88707 32.5984L 7.74789 32.5984C 8.22304 32.5984 8.60871 32.2141 8.60871 31.7406C 8.60871 31.2671 8.22304 30.8828 7.74789 30.8828L 6.88707 30.8828L 6.88707 27.4513L 14.6348 27.4513C 15.1099 27.4513 15.4956 27.067 15.4956 26.5935C 15.4956 26.12 15.1099 25.7357 14.6348 25.7357L 6.88707 25.7357L 6.88707 20.9438L 15.852 12.0102L 21.5216 12.0102C 21.9968 12.0102 22.3824 11.6259 22.3824 11.1524C 22.3824 10.6789 21.9968 10.2946 21.5216 10.2946L 17.5737 10.2946L 25.8259 2.0712L 39.2433 15.4415L 37.0171 15.4415C 36.541 15.4415 36.1563 15.8259 36.1563 16.2994C 36.1563 16.7729 36.541 17.1572 37.0171 17.1572L 40.965 17.1572L 44.4084 20.5885L 40.4605 20.5885C 39.9844 20.5885 39.5997 20.9729 39.5997 21.4463C 39.5997 21.9198 39.9844 22.3042 40.4605 22.3042L 44.7648 22.3042L 44.7648 25.7355L 43.904 25.7355C 43.4279 25.7355 43.0432 26.1198 43.0432 26.5933C 43.0432 27.0668 43.4279 27.4511 43.904 27.4511L 44.7648 27.4511L 44.7648 30.8825L 40.4605 30.8825C 39.9844 30.8825 39.5997 31.2668 39.5997 31.7403C 39.5997 32.2138 39.9844 32.5981 40.4605 32.5981L 44.7648 32.5981L 44.7648 41.1766L 43.904 41.1766C 43.4279 41.1766 43.0432 41.5609 43.0432 42.0344C 43.0432 42.5079 43.4279 42.8922 43.904 42.8922L 44.7648 42.8922L 44.7648 46.3235L 38.7388 46.3235C 38.2628 46.3235 37.878 46.7079 37.878 47.1813C 37.878 47.6548 38.2628 48.0392 38.7388 48.0392L 45.6257 48.0392C 46.1018 48.0392 46.4865 47.6548 46.4865 47.1813L 46.4865 22.6594L 50.1822 26.3422C 50.3499 26.5094 50.5702 26.5935 50.7906 26.5935Z"/>
<path id="path13_fill" d="M 0.86072 6.86271L 6.88667 6.86271L 6.88667 15.4411L 4.3041 15.4411C 3.82895 15.4411 3.44328 15.8255 3.44328 16.299C 3.44328 16.7725 3.82895 17.1568 4.3041 17.1568L 7.74749 17.1568C 8.22264 17.1568 8.60831 16.7725 8.60831 16.299L 8.60831 1.71563L 18.9386 1.71563L 18.9386 8.57843L 18.0777 8.57843C 17.6017 8.57843 17.2169 8.96276 17.2169 9.43625C 17.2169 9.90974 17.6017 10.2941 18.0777 10.2941L 18.9386 10.2941L 18.9386 16.299C 18.9386 16.7725 19.3233 17.1568 19.7994 17.1568C 20.2754 17.1568 20.6602 16.7725 20.6602 16.299L 20.6602 6.86271L 21.521 6.86271C 21.9971 6.86271 22.3818 6.47839 22.3818 6.0049C 22.3818 5.53141 21.9971 5.14708 21.521 5.14708L 20.6602 5.14708L 20.6602 0.857813C 20.6602 0.384322 20.2754 1.00627e-06 19.7994 1.00627e-06L 7.74759 1.00627e-06C 7.27244 1.00627e-06 6.88677 0.384322 6.88677 0.857813L 6.88677 5.14708L 0.860821 5.14708C 0.38567 5.14708 1.23146e-07 5.53141 1.23146e-07 6.0049C 1.23146e-07 6.47839 0.385568 6.86271 0.86072 6.86271Z"/>
<path id="path14_fill" d="M 1.78562e-07 0.857814C 1.78562e-07 1.3313 0.385669 1.71563 0.860821 1.71563L 4.3042 1.71563C 4.77936 1.71563 5.16503 1.3313 5.16503 0.857814C 5.16503 0.384322 4.77936 1.02599e-06 4.3042 1.02599e-06L 0.860821 1.02599e-06C 0.385669 -9.9503e-05 1.78562e-07 0.384222 1.78562e-07 0.857814Z"/>
<path id="path15_fill" d="M 0.860819 1.71563L 2.58256 1.71563C 3.05862 1.71563 3.44338 1.3313 3.44338 0.857813C 3.44338 0.384322 3.05862 1.00627e-06 2.58256 1.00627e-06L 0.860819 1.00627e-06C 0.38476 1.00627e-06 -1.47775e-07 0.384322 -1.47775e-07 0.857813C -1.47775e-07 1.3313 0.38476 1.71563 0.860819 1.71563Z"/>
<path id="path16_fill" d="M 8.12765e-07 0.857812C 8.12765e-07 1.3313 0.384761 1.71563 0.860821 1.71563L 4.3042 1.71563C 4.78026 1.71563 5.16503 1.3313 5.16503 0.857812C 5.16503 0.384321 4.78026 -2.01171e-07 4.3042 -2.01171e-07L 0.860821 -2.01171e-07C 0.384862 -0.00010073 8.12765e-07 0.38422 8.12765e-07 0.857812Z"/>
<path id="path17_fill" d="M 2.58256 -6.25852e-07L 0.860822 -6.25852e-07C 0.384763 -6.25852e-07 -8.62023e-07 0.384322 -8.62023e-07 0.857813C -8.62023e-07 1.3313 0.384763 1.71563 0.860822 1.71563L 2.58256 1.71563C 3.05862 1.71563 3.44338 1.3313 3.44338 0.857813C 3.44348 0.384322 3.05862 -6.25852e-07 2.58256 -6.25852e-07Z"/>
<path id="path18_fill" d="M 3.66869 19.214C 3.78491 19.2727 3.90992 19.3016 4.03426 19.3016C 4.26745 19.3016 4.49667 19.2003 4.65478 19.0121L 12.724 9.36133C 12.9241 9.12166 12.9677 8.78794 12.8338 8.50482C 12.7015 8.22255 12.4166 8.04236 12.1035 8.04236L 8.24642 8.04236L 9.66739 0.961851C 9.74163 0.589485 9.5455 0.217118 9.19695 0.065948C 8.8484 -0.0836202 8.44083 0.0273078 8.21975 0.337L 0.150525 11.5954C -0.0253597 11.8407 -0.0488112 12.1633 0.0891542 12.431C 0.22712 12.6988 0.503903 12.8677 0.8065 12.8677L 4.6144 12.8677L 3.25148 18.302C 3.16033 18.6655 3.33385 19.0443 3.66869 19.214ZM 2.37442 11.2593L 7.34751 4.3204L 6.47121 8.68813C 6.42365 8.92459 6.48492 9.16991 6.63821 9.35567C 6.79149 9.54228 7.01986 9.65085 7.26193 9.65085L 10.3807 9.65085L 5.67226 15.2813L 6.43074 12.2582C 6.49126 12.0177 6.43717 11.7636 6.28389 11.5681C 6.13136 11.3735 5.89656 11.2593 5.64805 11.2593L 2.37442 11.2593L 2.37442 11.2593Z"/>
<path id="path19_fill" fill-rule="evenodd" d="M 0 0.735667C 0 0.329369 0.327973 0 0.732548 0L 11.2812 0C 11.6858 0 12.0138 0.329369 12.0138 0.735667C 12.0138 1.14196 11.6858 1.47133 11.2812 1.47133L 0.732548 1.47133C 0.327973 1.47133 0 1.14196 0 0.735667Z"/>
<path id="path20_fill" fill-rule="evenodd" d="M 2.94267 0C 3.14602 0 3.34029 0.0838095 3.47937 0.231528L 5.68637 2.57568C 5.96425 2.87083 5.94923 3.33442 5.65282 3.61112C 5.35642 3.88783 4.89086 3.87287 4.61298 3.57772L 2.94267 1.80362L 1.27237 3.57772C 0.994482 3.87287 0.528926 3.88783 0.232517 3.61112C -0.0638928 3.33442 -0.0789108 2.87083 0.198973 2.57568L 2.40597 0.231528C 2.54505 0.0838095 2.73933 0 2.94267 0Z"/>
</defs>
</svg>
