<svg width="60" height="60" viewBox="0 0 60 60" version="1.1" xmlns="http://www.w3.org/2000/svg" xmlns:xlink="http://www.w3.org/1999/xlink">
<title>SP_Icon_10</title>
<desc>Created using Figma</desc>
<g id="Canvas" transform="translate(-4115 3177)">
<g id="SP_Icon_10">
<g id="Group">
<g id="Group">
<g id="Group">
<g id="Vector">
<use xlink:href="#path0_fill" transform="translate(4137 -3153)" fill="#2D9CDB"/>
</g>
<g id="Vector">
<use xlink:href="#path1_fill" transform="translate(4135 -3177)" fill="#2D9CDB"/>
</g>
<g id="Vector">
<use xlink:href="#path2_fill" transform="translate(4126 -3123.13)" fill="#2D9CDB"/>
</g>
<g id="Vector">
<use xlink:href="#path3_fill" transform="translate(4155.94 -3123.06)" fill="#2D9CDB"/>
</g>
<g id="Vector">
<use xlink:href="#path4_fill" transform="translate(4155.58 -3157.84)" fill="#2D9CDB"/>
</g>
<g id="Vector">
<use xlink:href="#path5_fill" transform="translate(4129 -3149)" fill="#2D9CDB"/>
</g>
<g id="Vector">
<use xlink:href="#path6_fill" transform="translate(4115 -3158.4)" fill="#2D9CDB"/>
</g>
</g>
</g>
</g>
<g id="&#226;&#130;&#189;">
<use xlink:href="#path7_fill" transform="translate(4143 -3170)" fill="#2D9CDB"/>
</g>
</g>
</g>
<defs>
<path id="path0_fill" d="M 1.00012 3.57623e-07C 0.448079 3.57623e-07 -1.43074e-08 0.448 -1.43074e-08 0.999945C -1.43074e-08 1.55189 0.448079 1.99989 1.00012 1.99989L 17.0026 1.99989C 17.5557 1.99989 18.0027 1.55189 18.0027 0.999945C 18.0027 0.448 17.5557 3.57623e-07 17.0026 3.57623e-07L 1.00012 3.57623e-07Z"/>
<path id="path1_fill" d="M 11.0018 21.9996C 17.0687 21.9996 22.0035 17.0658 22.0035 10.9998C 22.0035 4.93492 17.0688 0 11.0018 0C 4.93578 0 7.86905e-07 4.93492 7.86905e-07 10.9999C 0.000117993 17.0658 4.93589 21.9996 11.0018 21.9996ZM 11.0018 2.00001C 15.9656 2.00001 20.0032 6.03799 20.0032 10.9999C 20.0032 15.9628 15.9656 19.9997 11.0018 19.9997C 6.03904 19.9997 2.00035 15.9628 2.00035 10.9999C 2.00035 6.03788 6.03904 2.00001 11.0018 2.00001Z"/>
<path id="path2_fill" d="M 7.31175 2.59633C 6.7787 2.45337 6.22959 2.7693 6.0866 3.30332L 5.8666 4.12725L 2.00103 3.09226L 2.49306 1.25925C 2.63512 0.726285 2.31901 0.178207 1.78596 0.0343031C 1.25291 -0.108664 0.703798 0.208323 0.560807 0.742338L 0.0697137 2.5743C -0.0692925 3.09027 0.000679488 3.62933 0.269784 4.09233C 0.53678 4.55427 0.966926 4.88532 1.48392 5.02431L 5.34855 6.05929C 5.52155 6.10534 5.69666 6.12831 5.86965 6.12831C 6.21576 6.12831 6.55777 6.03726 6.86578 5.86031C 7.3298 5.59336 7.66091 5.16129 7.79792 4.64533L 8.01897 3.82139C 8.16197 3.28726 7.84492 2.7393 7.31175 2.59633Z"/>
<path id="path3_fill" d="M 7.5231 0.741658C 7.38105 0.207643 6.82795 -0.107352 6.29994 0.0336228C 5.76583 0.176589 5.44879 0.724667 5.59178 1.25857L 6.06389 3.02854L 2.20031 4.06352L 1.96625 3.1885C 1.82419 2.65554 1.27508 2.33855 0.741094 2.48152C 0.208041 2.62448 -0.108062 3.17244 0.0339917 3.70646L 0.26899 4.58043C 0.406004 5.0964 0.737112 5.52846 1.20019 5.79541C 1.50926 5.97342 1.85127 6.06435 2.19633 6.06435C 2.37038 6.06435 2.54642 6.04138 2.71836 5.99439L 6.58194 4.95941C 7.09905 4.82136 7.53107 4.49043 7.79912 4.02637C 8.06518 3.56244 8.13515 3.02338 7.99615 2.5114L 7.5231 0.741658Z"/>
<path id="path4_fill" d="M 18.1104 10.1065C 17.7053 9.73155 17.0702 9.75557 16.6971 10.1615C 16.321 10.5665 16.3451 11.1995 16.7512 11.5745C 16.7591 11.5816 17.4903 12.2985 17.4153 13.1295C 17.3442 13.9165 16.5491 14.5805 15.893 14.9974C 15.6739 15.1374 15.4549 15.2454 15.2369 15.3394C 14.2147 8.8005 9.12094 3.15356 1.36965 0.0706359C 0.856518 -0.13233 0.274475 0.116691 0.0714739 0.630667C -0.133519 1.14371 0.117535 1.72565 0.6316 1.92967C 7.72573 4.75068 12.3694 9.84557 13.2656 15.6964C 11.9814 15.6284 11.0432 15.0454 10.9733 15.0014C 10.5122 14.7023 9.89509 14.8324 9.59305 15.2924C 9.29101 15.7543 9.42005 16.3743 9.88208 16.6774C 9.97608 16.7394 11.4893 17.7073 13.5287 17.7073C 13.7948 17.7073 14.0688 17.6903 14.3499 17.6533C 14.3629 17.6533 14.3739 17.6603 14.3858 17.6603C 14.4119 17.6603 14.4368 17.6593 14.4628 17.6573C 14.5838 17.6473 14.6939 17.6103 14.7989 17.5622C 15.498 17.4173 16.2271 17.1553 16.9682 16.6843C 18.4715 15.7263 19.2925 14.5903 19.4076 13.3093C 19.5687 11.5135 18.2604 10.2455 18.1104 10.1065Z"/>
<path id="path5_fill" d="M 1.85996e-07 2.00001C 1.85996e-07 3.10296 0.89815 4.00002 2.00035 4.00002C 3.1035 4.00002 4.00071 3.10308 4.00071 2.00001C 4.00071 0.897057 3.10361 -1.57354e-07 2.00035 -1.57354e-07C 0.89815 -1.57354e-07 1.85996e-07 0.897057 1.85996e-07 2.00001Z"/>
<path id="path6_fill" d="M 54.9916 19.6326C 54.4456 19.5456 53.9344 19.9235 53.8515 20.4695C 52.4593 29.5503 42.2076 36.3982 30.0047 36.3982C 19.6111 36.3982 10.4456 31.4152 7.19715 23.9974C 7.0381 23.6334 6.67804 23.3984 6.28095 23.3984L 3.50059 23.3984C 3.31458 23.3984 3.09752 23.3644 2.89546 22.9515C 2.88643 22.9334 2.00035 21.1315 2.00035 18.3986C 2.00035 15.6976 2.88749 13.8616 2.90952 13.8166C 3.07056 13.4676 3.24754 13.3986 3.50059 13.3986L 6.28107 13.3986C 6.67816 13.3986 7.03822 13.1637 7.19727 12.8006C 9.30955 7.97574 14.0823 4.01978 20.2903 1.94876C 20.8144 1.7738 21.0965 1.20779 20.9215 0.683738C 20.7474 0.159801 20.1793 -0.123202 19.6573 0.0517568C 13.167 2.21688 8.09823 6.33186 5.64089 11.3987L 3.50059 11.3987C 2.41644 11.3987 1.5613 11.9608 1.10619 12.9517C 1.06118 13.0417 -2.79443e-11 15.1997 -2.79443e-11 18.3986C -2.79443e-11 21.5975 1.06118 23.7555 1.10221 23.8385C 1.59529 24.8445 2.44738 25.3984 3.50059 25.3984L 5.64089 25.3984C 9.41645 33.2014 19.105 38.3983 30.0047 38.3983C 43.1858 38.3983 54.2885 30.8214 55.8288 20.7716C 55.9128 20.2256 55.5377 19.7156 54.9916 19.6326Z"/>
<path id="path7_fill" d="M 0 3.89859L 0.90458 3.89859L 0.90458 0.19155C 1.22519 0.131456 1.55725 0.0863849 1.90076 0.056338C 2.24427 0.0187793 2.60687 0 2.98855 0C 3.3855 0 3.76718 0.0338029 4.13359 0.101408C 4.5 0.169014 4.82061 0.292958 5.09542 0.473239C 5.37023 0.653521 5.58779 0.901408 5.74809 1.2169C 5.91603 1.53239 6 1.93803 6 2.4338C 6 2.89202 5.91985 3.27887 5.75954 3.59437C 5.59924 3.90986 5.3855 4.16901 5.11832 4.37183C 4.85115 4.56714 4.5458 4.70986 4.20229 4.8C 3.85878 4.88263 3.5 4.92394 3.12595 4.92394L 2.34733 4.92394L 2.34733 5.57747L 4.17939 5.57747L 4.17939 6.60282L 2.34733 6.60282L 2.34733 8L 0.90458 8L 0.90458 6.60282L 0 6.60282L 0 5.57747L 0.90458 5.57747L 0.90458 4.92394L 0 4.92394L 0 3.89859ZM 2.34733 3.86479L 2.94275 3.86479C 3.14885 3.86479 3.34351 3.84225 3.52672 3.79718C 3.71756 3.7446 3.88168 3.66573 4.01908 3.56056C 4.15649 3.4554 4.26336 3.31643 4.33969 3.14366C 4.42366 2.96338 4.46565 2.7493 4.46565 2.50141C 4.46565 2.04319 4.33969 1.72019 4.08779 1.53239C 3.83588 1.33709 3.51145 1.23944 3.1145 1.23944C 2.96183 1.23944 2.81679 1.24695 2.67939 1.26197C 2.54198 1.26948 2.4313 1.28075 2.34733 1.29577L 2.34733 3.86479Z"/>
</defs>
</svg>
