<svg width="52" height="53" viewBox="0 0 52 53" version="1.1" xmlns="http://www.w3.org/2000/svg" xmlns:xlink="http://www.w3.org/1999/xlink">
<title>SP_Icon_6</title>
<desc>Created using Figma</desc>
<g id="Canvas" transform="translate(-4682 4541)">
<g id="SP_Icon_6">
<g id="Group">
<g id="Group">
<g id="Group">
<g id="Vector">
<use xlink:href="#path0_fill" transform="translate(4682 -4533.93)" fill="#2D9CDB"/>
</g>
<g id="Vector">
<use xlink:href="#path1_fill" transform="translate(4707.13 -4500.37)" fill="#2D9CDB"/>
</g>
<g id="Vector">
<use xlink:href="#path2_fill" transform="translate(4720.13 -4533.93)" fill="#2D9CDB"/>
</g>
<g id="Vector">
<use xlink:href="#path3_fill" transform="translate(4704.53 -4533.93)" fill="#2D9CDB"/>
</g>
<g id="Vector">
<use xlink:href="#path4_fill" transform="translate(4704.53 -4537.47)" fill="#2D9CDB"/>
</g>
<g id="Vector">
<use xlink:href="#path5_fill" transform="translate(4704.53 -4530.4)" fill="#2D9CDB"/>
</g>
<g id="Vector">
<use xlink:href="#path6_fill" transform="translate(4697.6 -4541)" fill="#2D9CDB"/>
</g>
</g>
</g>
</g>
</g>
</g>
<defs>
<path id="path0_fill" d="M 12.9999 1.7667L 10.3999 1.7667C 10.3999 0.792413 9.62259 -1.20044e-07 8.66659 -1.20044e-07L 1.73336 -1.20044e-07C 0.777355 0.000103396 0 0.792413 0 1.7667L 0 3.53341C 0 4.5077 0.777355 5.30011 1.73336 5.30011L 8.66669 5.30011C 9.62259 5.30011 10.4 4.5078 10.4 3.53341L 12.9999 3.53341C 13.4783 3.53341 13.8666 3.13767 13.8666 2.65011C 13.8666 2.16244 13.4783 1.7667 12.9999 1.7667ZM 8.6675 2.65363L 8.6675 3.53341L 1.73336 3.53341L 1.73336 1.7667L 8.66669 1.7667L 8.6676 2.64742C 8.6676 2.64835 8.66669 2.64835 8.66669 2.65011C 8.66659 2.65093 8.6675 2.65187 8.6675 2.65363Z"/>
<path id="path1_fill" d="M 0.866628 -1.08671e-06C 0.388271 -1.08671e-06 -4.8351e-07 0.395742 -4.8351e-07 0.883301L -4.8351e-07 11.4833C -4.8351e-07 11.9709 0.388271 12.3666 0.866628 12.3666C 1.34499 12.3666 1.73326 11.9709 1.73326 11.4833L 1.73326 0.883301C 1.73326 0.395742 1.34499 -1.08671e-06 0.866628 -1.08671e-06Z"/>
<path id="path2_fill" d="M 12.1332 -1.76907e-07L 5.19987 -1.76907e-07C 4.24397 -1.76907e-07 3.46651 0.79231 3.46651 1.7667L 0.866628 1.7667C 0.388271 1.7667 1.0662e-06 2.16244 1.0662e-06 2.65C 1.0662e-06 3.13756 0.388271 3.5333 0.866628 3.5333L 3.46662 3.5333C 3.46662 4.50759 4.24397 5.30001 5.19997 5.30001L 12.1333 5.30001C 13.0892 5.30001 13.8667 4.5077 13.8667 3.5333L 13.8667 1.7666C 13.8666 0.79231 13.0892 -1.76907e-07 12.1332 -1.76907e-07ZM 5.19997 3.5333L 5.19997 1.7666L 12.1333 1.7666L 12.1342 3.5333L 5.19997 3.5333Z"/>
<path id="path3_fill" d="M 6.0666 -1.76907e-07L 0.866628 -1.76907e-07C 0.388271 -1.76907e-07 4.46317e-07 0.395741 4.46317e-07 0.8833C 4.46317e-07 1.37086 0.388271 1.7666 0.866628 1.7666L 6.0666 1.7666C 6.54496 1.7666 6.93323 1.37086 6.93323 0.8833C 6.93323 0.395741 6.54496 -1.76907e-07 6.0666 -1.76907e-07Z"/>
<path id="path4_fill" d="M 6.0666 -6.0022e-08L 0.866628 -6.0022e-08C 0.388271 -6.0022e-08 4.46317e-07 0.395741 4.46317e-07 0.8833C 4.46317e-07 1.37086 0.388271 1.7666 0.866628 1.7666L 6.0666 1.7666C 6.54496 1.7666 6.93323 1.37086 6.93323 0.8833C 6.93323 0.395741 6.54496 -6.0022e-08 6.0666 -6.0022e-08Z"/>
<path id="path5_fill" d="M 6.0666 1.57953e-07L 0.866628 1.57953e-07C 0.388271 1.57953e-07 4.46317e-07 0.395741 4.46317e-07 0.8833C 4.46317e-07 1.37086 0.388271 1.7666 0.866628 1.7666L 6.0666 1.7666C 6.54496 1.7666 6.93323 1.37086 6.93323 0.8833C 6.93323 0.395741 6.54496 1.57953e-07 6.0666 1.57953e-07Z"/>
<path id="path6_fill" d="M 16.4665 0L 4.33334 0C 1.9439 0 6.19885e-07 1.98129 6.19885e-07 4.41671L 6.19885e-07 18.55C 6.19885e-07 20.6833 1.49154 22.4668 3.46662 22.8775L 3.46662 28.2667C 3.46662 29.241 4.24397 30.0334 5.19997 30.0334L 6.93333 30.0334L 6.93333 37.1C 6.93333 38.0743 7.71069 38.8668 8.66669 38.8668L 12.1333 38.8668C 13.0892 38.8668 13.8667 38.0744 13.8667 37.1L 13.8667 30.0333L 15.5999 30.0333C 16.5558 30.0333 17.3333 29.241 17.3333 28.2666L 17.3333 22.8774C 19.3085 22.4666 20.7999 20.6832 20.7999 18.5499L 20.7999 4.41671C 20.7999 1.98129 18.856 0 16.4665 0ZM 19.0665 18.55C 19.0665 20.011 17.9 21.2 16.4665 21.2C 15.9882 21.2 15.5999 21.5958 15.5999 22.0833L 15.5999 28.2666L 11.2666 28.2666C 10.7882 28.2666 10.3999 28.6624 10.3999 29.1499C 10.3999 29.6375 10.7882 30.0332 11.2666 30.0332L 12.1332 30.0332L 12.1332 37.1L 8.66659 37.1L 8.66659 29.15C 8.66659 28.6625 8.27832 28.2667 7.79996 28.2667L 5.19997 28.2667L 5.19997 22.9667L 12.9999 22.9667C 13.4783 22.9667 13.8666 22.571 13.8666 22.0834C 13.8666 21.5959 13.4783 21.2001 12.9999 21.2001L 4.33334 21.2001C 2.8999 21.2001 1.73336 20.0112 1.73336 18.5501L 1.73336 4.41671C 1.73336 2.95569 2.8999 1.7667 4.33334 1.7667L 16.4667 1.7667C 17.9001 1.7667 19.0666 2.95569 19.0666 4.41671L 19.0666 18.55L 19.0665 18.55Z"/>
</defs>
</svg>
