<svg width="60" height="60" viewBox="0 0 60 60" version="1.1" xmlns="http://www.w3.org/2000/svg" xmlns:xlink="http://www.w3.org/1999/xlink">
<title>SP_Icon_11</title>
<desc>Created using Figma</desc>
<g id="Canvas" transform="translate(-4517 3177)">
<g id="SP_Icon_11">
<g id="Group">
<g id="Group">
<g id="Group">
<g id="Vector">
<use xlink:href="#path0_fill" transform="translate(4517 -3171)" fill="#2D9CDB"/>
</g>
<g id="Vector">
<use xlink:href="#path1_fill" transform="translate(4540 -3177)" fill="#2D9CDB"/>
</g>
</g>
</g>
</g>
</g>
</g>
<defs>
<path id="path0_fill" d="M 59.7069 10.2928L 49.707 0.292965C 49.519 0.104999 49.266 2.14574e-08 49 2.14574e-08L 37.0001 2.14574e-08C 36.4471 2.14574e-08 36.0002 0.446947 36.0002 0.999947C 36.0002 1.55189 36.4471 1.99989 37.0001 1.99989L 48.586 1.99989L 57.7029 11.1167L 32.2081 48.0413L 40.7901 11.9998L 53.9999 11.9998C 54.5529 11.9998 54.9999 11.5518 54.9999 10.9999C 54.9999 10.4469 54.5529 9.99994 53.9999 9.99994L 42.414 9.99994L 46.707 5.70695C 47.0981 5.31602 47.0981 4.68298 46.707 4.29299C 46.3161 3.90194 45.684 3.90194 45.2931 4.29299L 40.0001 9.58592L 39.7071 9.29296C 39.3162 8.90202 38.6841 8.90202 38.2932 9.29296C 38.0982 9.48795 38.0002 9.744 38.0002 9.99994L 22.0003 9.99994C 22.0003 9.74389 21.9023 9.48795 21.7073 9.29296C 21.3162 8.90202 20.6843 8.90202 20.2933 9.29296L 20.0004 9.58592L 14.7074 4.29299C 14.3163 3.90194 13.6844 3.90194 13.2934 4.29299C 12.9024 4.68298 12.9024 5.31602 13.2934 5.70695L 17.5864 9.99994L 6.00033 9.99994C 5.44732 9.99994 5.00037 10.4469 5.00037 10.9999C 5.00037 11.5518 5.44732 11.9998 6.00033 11.9998L 19.2103 11.9998L 27.7922 48.0413L 2.29735 11.1168L 11.4142 2.00001L 23.0001 2.00001C 23.5531 2.00001 24 1.55201 24 1.00006C 24 0.447064 23.5531 0.000117143 23.0001 0.000117143L 11.0002 0.000117143C 10.7342 0.000117143 10.4802 0.105116 10.2932 0.293082L 0.293462 10.2928C -0.0484884 10.6338 -0.0974724 11.1707 0.177447 11.5678L 29.1772 53.5672C 29.2302 53.6442 29.2952 53.7092 29.3652 53.7672C 29.3852 53.7833 29.4052 53.7942 29.4262 53.8082C 29.4873 53.8522 29.5533 53.8892 29.6243 53.9183C 29.6503 53.9282 29.6763 53.9403 29.7043 53.9483C 29.7994 53.9783 29.8973 53.9992 30.0003 53.9992C 30.1034 53.9992 30.2013 53.9783 30.2964 53.9483C 30.3244 53.9403 30.3504 53.9293 30.3764 53.9183C 30.4474 53.8893 30.5134 53.8523 30.5754 53.8082C 30.5954 53.7942 30.6153 53.7833 30.6354 53.7672C 30.7053 53.7092 30.7693 53.6442 30.8233 53.5672L 59.8231 11.5678C 60.0979 11.1709 60.0488 10.6338 59.7069 10.2928ZM 30.0001 48.6812L 21.2662 11.9997L 38.734 11.9997L 30.0001 48.6812Z"/>
<path id="path1_fill" d="M 3.79823 7.00071L 0.168265 12.4456C -0.0966941 12.8416 -0.0437256 13.3706 0.293303 13.7076C 0.631268 14.0436 1.15826 14.0956 1.55528 13.8326L 7.00024 10.2016L 12.4452 13.8326C 12.6142 13.9456 12.8082 14.0007 13.0002 14.0007C 13.2582 14.0007 13.5142 13.9007 13.7072 13.7077C 14.0442 13.3707 14.0972 12.8417 13.8322 12.4457L 10.2022 7.00082L 13.8322 1.55484C 14.0972 1.15887 14.0442 0.630834 13.7072 0.293808C 13.3692 -0.0452109 12.8412 -0.0961868 12.4452 0.16877L 7.00024 3.79872L 1.55517 0.16877C 1.15919 -0.0952493 0.63115 -0.0442735 0.293185 0.293808C -0.0438436 0.630834 -0.0968121 1.15876 0.168147 1.55484L 3.79823 7.00071ZM 5.83212 6.44571L 4.60518 4.60578L 6.44512 5.83271C 6.7811 6.05572 7.21914 6.05572 7.55511 5.83271L 9.39506 4.60578L 8.16812 6.44571C 7.94417 6.78169 7.94417 7.21867 8.16812 7.55476L 9.39506 9.3947L 7.55511 8.1687C 7.38707 8.05667 7.19312 8.00065 7.00012 8.00065C 6.80711 8.00065 6.61317 8.05667 6.44512 8.1687L 4.60518 9.3947L 5.83212 7.55476C 6.05618 7.21867 6.05618 6.78169 5.83212 6.44571Z"/>
</defs>
</svg>
