<svg width="60" height="60" viewBox="0 0 60 60" version="1.1" xmlns="http://www.w3.org/2000/svg" xmlns:xlink="http://www.w3.org/1999/xlink">
<title>SP_Icon_9</title>
<desc>Created using Figma</desc>
<g id="Canvas" transform="translate(-4515 3357)">
<g id="SP_Icon_9">
<g id="Group">
<g id="Group">
<g id="Group">
<g id="Vector">
<use xlink:href="#path0_fill" transform="translate(4538.89 -3311)" fill="#2D9CDB"/>
</g>
<g id="Vector">
<use xlink:href="#path1_fill" transform="translate(4533.91 -3349)" fill="#2D9CDB"/>
</g>
<g id="Vector">
<use xlink:href="#path2_fill" transform="translate(4538.89 -3317)" fill="#2D9CDB"/>
</g>
<g id="Vector">
<use xlink:href="#path3_fill" transform="translate(4515 -3357)" fill="#2D9CDB"/>
</g>
<g id="Vector">
<use xlink:href="#path4_fill" transform="translate(4552.83 -3317)" fill="#2D9CDB"/>
</g>
<g id="Vector">
<use xlink:href="#path5_fill" transform="translate(4552.83 -3318.96)" fill="#2D9CDB"/>
</g>
<g id="Vector">
<use xlink:href="#path6_fill" transform="translate(4540.88 -3343)" fill="#2D9CDB"/>
</g>
</g>
</g>
</g>
</g>
</g>
<defs>
<path id="path0_fill" d="M 0.99547 1.99992L 14.9326 1.99992C 15.4832 1.99992 15.9281 1.55191 15.9281 0.999959C 15.9281 0.448007 15.4832 -1.43051e-06 14.9326 -1.43051e-06L 0.99547 -1.43051e-06C 0.444945 -1.43051e-06 3.56022e-07 0.448007 3.56022e-07 0.999959C 3.56022e-07 1.55191 0.444945 1.99992 0.99547 1.99992Z"/>
<path id="path1_fill" d="M -5.12672e-07 1.00008C -5.12672e-07 1.55203 0.444946 2.00003 0.995471 2.00003L 35.8383 2.00003C 37.4849 2.00003 38.8249 3.34605 38.8249 5.00003L 38.8249 29C 38.8249 29.5519 39.2698 29.9999 39.8204 29.9999C 40.3709 29.9999 40.8158 29.5519 40.8158 29L 40.8158 5.00003C 40.8158 2.24308 38.5829 -2.71796e-07 35.8382 -2.71796e-07L 0.995588 -2.71796e-07C 0.445064 0.000116915 -5.12672e-07 0.448124 -5.12672e-07 1.00008Z"/>
<path id="path2_fill" d="M 0.99547 1.99991L 10.9505 1.99991C 11.5011 1.99991 11.946 1.55191 11.946 0.999958C 11.946 0.448006 11.5011 7.15254e-07 10.9505 7.15254e-07L 0.99547 7.15254e-07C 0.444945 7.15254e-07 3.56022e-07 0.448006 3.56022e-07 0.999958C 3.56022e-07 1.55191 0.444945 1.99991 0.99547 1.99991Z"/>
<path id="path3_fill" d="M 34.8429 57.9998L 17.9192 57.9998L 17.9192 12.9999C 17.9192 10.243 15.6863 7.9999 12.9416 7.9999C 10.197 7.9999 7.964 10.2429 7.964 12.9999L 7.964 46.9998C 7.964 48.6538 6.62403 49.9998 4.97747 49.9998C 3.33091 49.9998 1.99094 48.6538 1.99094 46.9998L 1.99094 1.99992L 41.8114 1.99992L 41.8114 4.99991C 41.8114 5.55186 42.2564 5.99987 42.8069 5.99987C 43.3574 5.99987 43.8024 5.55186 43.8024 4.99991L 43.8024 0.999958C 43.8024 0.448007 43.3574 8.90575e-11 42.8069 8.90575e-11L 0.995471 8.90575e-11C 0.444946 8.90575e-11 0 0.448007 0 0.999958L 0 46.9998C 0 49.7567 2.2329 51.9998 4.97759 51.9998C 7.72216 51.9998 9.95518 49.7569 9.95518 46.9998L 9.95518 12.9999C 9.95518 11.3459 11.2951 9.99993 12.9417 9.99993C 14.5883 9.99993 15.9282 11.3459 15.9282 12.9999L 15.9282 49.9998L 10.9506 49.9998C 10.4001 49.9998 9.95518 50.4478 9.95518 50.9997C 9.95518 51.5517 10.4001 51.9997 10.9506 51.9997L 15.9282 51.9997L 15.9282 58.9996C 15.9282 59.5516 16.3732 59.9996 16.9237 59.9996L 34.8429 59.9996C 35.3934 59.9996 35.8384 59.5516 35.8384 58.9996C 35.8384 58.4477 35.3934 57.9998 34.8429 57.9998Z"/>
<path id="path4_fill" d="M 7.964 0.999958C 7.964 0.448006 7.51905 7.15254e-07 6.96853 7.15254e-07L 0.995469 7.15254e-07C 0.444945 7.15254e-07 -1.99372e-07 0.448006 -1.99372e-07 0.999958C -1.99372e-07 1.55191 0.444945 1.99991 0.995469 1.99991L 6.96853 1.99991C 7.51905 1.99991 7.964 1.55191 7.964 0.999958Z"/>
<path id="path5_fill" d="M 20.7155 3.15166L 18.7245 1.15163C 17.1934 -0.385397 14.8639 -0.38235 13.3349 1.15163L 0.291653 14.2536C 0.104528 14.4407 -1.99372e-07 14.6957 -1.99372e-07 14.9606L -1.99372e-07 20.9606C -1.99372e-07 21.5125 0.444945 21.9606 0.99547 21.9606L 6.96853 21.9606C 7.23335 21.9606 7.48616 21.8556 7.67235 21.6676L 20.7155 8.56559C 22.3013 6.97255 22.3013 4.74564 20.7155 3.15166ZM 12.0476 5.27357L 13.6255 6.85852L 4.97747 15.5465L 3.39858 13.9605L 12.0476 5.27357ZM 1.99094 19.9605L 1.99094 15.3745L 6.55637 19.9605L 1.99094 19.9605ZM 7.964 18.5465L 6.38522 16.9605L 15.0343 8.27356L 16.6132 9.85852L 7.964 18.5465ZM 19.3079 7.15161L 18.0207 8.44465L 13.4552 3.85865L 14.7425 2.56561C 15.5309 1.77459 16.5265 1.7726 17.3169 2.56561L 19.3079 4.56564C 20.1132 5.37564 20.1132 6.34255 19.3079 7.15161Z"/>
<path id="path6_fill" d="M 21.9014 21.0002L 21.9014 12.4142L 22.193 12.7072C 22.3872 12.9022 22.6421 13.0002 22.8969 13.0002C 23.1518 13.0002 23.4065 12.9022 23.6007 12.7072C 23.9898 12.3161 23.9898 11.6841 23.6007 11.2932L 21.6107 9.29423L 21.6087 9.29224L 12.6501 0.293203C 12.261 -0.0977339 11.6317 -0.0977339 11.2425 0.293203L 2.28397 9.29224L 2.28198 9.29423L 0.291974 11.2932C -0.0973251 11.6843 -0.0973251 12.3163 0.291974 12.7072C 0.681272 13.0981 1.31043 13.0981 1.69961 12.7072L 1.99126 12.4142L 1.99126 21.0002C 1.99126 21.5521 2.43621 22.0001 2.98673 22.0001L 9.95526 22.0001C 10.5058 22.0001 10.9507 21.5521 10.9507 21.0002L 10.9507 16.0002L 12.9418 16.0002L 12.9418 21.0002C 12.9418 21.5521 13.3867 22.0001 13.9373 22.0001L 20.9058 22.0001C 21.4564 22.0001 21.9014 21.5521 21.9014 21.0002ZM 19.9103 20.0001L 14.9327 20.0001L 14.9327 15.0001C 14.9327 14.4481 14.4878 14.0001 13.9373 14.0001L 9.95526 14.0001C 9.40474 14.0001 8.95979 14.4481 8.95979 15.0001L 8.95979 20.0001L 3.9822 20.0001L 3.9822 10.4141L 11.9463 2.41406L 19.9104 10.4141L 19.9104 20.0001L 19.9103 20.0001Z"/>
</defs>
</svg>
