<svg width="48" height="39" viewBox="0 0 48 39" version="1.1" xmlns="http://www.w3.org/2000/svg" xmlns:xlink="http://www.w3.org/1999/xlink">
<title>SP_Icon_7</title>
<desc>Created using Figma</desc>
<g id="Canvas" transform="translate(-4684 4343)">
<g id="SP_Icon_7">
<g id="Group">
<g id="Group">
<g id="Group">
<g id="Vector">
<use xlink:href="#path0_fill" transform="translate(4714.4 -4334.88)" fill="#2D9CDB"/>
</g>
<g id="Vector">
<use xlink:href="#path1_fill" transform="translate(4684 -4343)" fill="#2D9CDB"/>
</g>
<g id="Vector">
<use xlink:href="#path2_fill" transform="translate(4695.2 -4334.88)" fill="#2D9CDB"/>
</g>
</g>
</g>
</g>
</g>
</g>
<defs>
<path id="path0_fill" d="M 0.300153 8.7596C 0.647309 9.03991 1.14812 8.98221 1.42496 8.63201L 3.55215 5.93123L 4.01537 8.28428C 4.0914 8.67019 4.42581 8.93755 4.7994 8.93755C 4.85059 8.93755 4.90422 8.9327 4.957 8.92127C 5.38984 8.83348 5.67137 8.4053 5.58418 7.96579L 4.93778 4.68087C 5.79615 4.30953 6.40018 3.44421 6.40018 2.43751C 6.40018 1.09364 5.32337 4.53294e-07 4.00018 4.53294e-07C 2.67699 4.53294e-07 1.60018 1.09364 1.60018 2.43751C 1.60018 3.2793 2.02178 4.02188 2.66256 4.45987L 0.175369 7.61806C -0.100724 7.96827 -0.0446597 8.47928 0.300153 8.7596ZM 4.00009 1.62504C 4.44165 1.62504 4.80006 1.9898 4.80006 2.43751C 4.80006 2.88521 4.44165 3.24998 4.00009 3.24998C 3.55853 3.24998 3.20012 2.88521 3.20012 2.43751C 3.20012 1.9898 3.55853 1.62504 4.00009 1.62504Z"/>
<path id="path1_fill" d="M 44.8 4.87501C 43.0352 4.87501 41.6001 6.33266 41.6001 8.12499C 41.6001 9.14227 42.0721 10.0409 42.7953 10.6372L 31.4848 22.1236L 25.1064 6.28791C 26.3248 5.82802 27.2001 4.64583 27.2001 3.24998C 27.2001 1.45755 25.7648 7.26433e-08 24.0001 7.26433e-08C 22.2353 7.26433e-08 20.8001 1.45765 20.8001 3.24998C 20.8001 4.64583 21.6753 5.82802 22.8937 6.28791L 16.5154 22.1236L 5.20481 10.6372C 5.928 10.0409 6.40003 9.14227 6.40003 8.12499C 6.40003 6.33256 4.96481 4.87501 3.20006 4.87501C 1.43522 4.87501 0 6.33266 0 8.12499C 0 9.91732 1.43522 11.375 3.19997 11.375C 3.23841 11.375 3.27441 11.3644 3.312 11.3636L 6.40959 31.8111C 6.46959 32.2075 6.80559 32.5 7.2 32.5L 37.6 32.5C 38.0424 32.5 38.4 32.136 38.4 31.6876C 38.4 31.2391 38.0424 30.8751 37.6 30.8751L 7.88644 30.8751L 5.16244 12.8919L 16.2344 24.137C 16.4232 24.3295 16.6952 24.4132 16.9576 24.3589C 17.22 24.306 17.4392 24.1216 17.5408 23.8698L 24 7.83334L 30.4592 23.8697C 30.5608 24.1215 30.78 24.3059 31.0424 24.3588C 31.3048 24.4124 31.5768 24.3287 31.7656 24.1369L 42.8376 12.8919L 40.0096 31.5641C 39.9888 31.6965 40.0128 31.8297 40.0632 31.9532L 40.0088 37.3751L 7.99997 37.3751L 7.99997 34.9376C 7.99997 34.4891 7.64241 34.1251 7.2 34.1251C 6.75759 34.1251 6.40003 34.4891 6.40003 34.9376L 6.40003 38.1875C 6.40003 38.636 6.75759 39 7.2 39L 40.8 39C 41.2384 39 41.5952 38.6417 41.6 38.1956L 41.6663 31.6956C 41.6671 31.6298 41.6568 31.5648 41.6376 31.5006L 44.688 11.3635C 44.7256 11.3644 44.7616 11.3749 44.8 11.3749C 46.5649 11.3749 48 9.91722 48 8.12489C 48 6.33256 46.5648 4.87501 44.8 4.87501ZM 3.19997 9.75002C 2.31759 9.75002 1.59994 9.02125 1.59994 8.12499C 1.59994 7.22873 2.3175 6.49995 3.19997 6.49995C 4.08159 6.49995 4.8 7.22873 4.8 8.12499C 4.8 9.02125 4.08159 9.75002 3.19997 9.75002ZM 22.4 3.24998C 22.4 2.35381 23.1184 1.62494 24 1.62494C 24.8824 1.62494 25.6 2.35372 25.6 3.24998C 25.6 4.14614 24.8825 4.87501 24 4.87501C 23.1184 4.87501 22.4 4.14624 22.4 3.24998ZM 44.8 9.75002C 43.9177 9.75002 43.2 9.02125 43.2 8.12499C 43.2 7.22873 43.9176 6.49995 44.8 6.49995C 45.6817 6.49995 46.4001 7.22873 46.4001 8.12499C 46.4001 9.02125 45.6816 9.75002 44.8 9.75002Z"/>
<path id="path2_fill" d="M 1.46241 4.68087L 0.815249 7.96579C 0.728812 8.4054 1.01044 8.83358 1.44328 8.92127C 1.49606 8.9327 1.54809 8.93755 1.60087 8.93755C 1.97447 8.93755 2.30888 8.67029 2.38406 8.28428L 2.84803 5.93123L 4.97522 8.63201C 5.25122 8.98221 5.75362 9.03991 6.10003 8.7596C 6.44484 8.47928 6.50081 7.96827 6.22481 7.61806L 3.73763 4.45987C 4.37841 4.02198 4.8 3.2793 4.8 2.43751C 4.8 1.09364 3.72319 4.53294e-07 2.4 4.53294e-07C 1.07681 4.53294e-07 2.68936e-07 1.09364 2.68936e-07 2.43751C 2.68936e-07 3.44421 0.603937 4.30953 1.46241 4.68087ZM 2.4 1.62504C 2.84156 1.62504 3.19997 1.9898 3.19997 2.43751C 3.19997 2.88521 2.84156 3.24998 2.4 3.24998C 1.95844 3.24998 1.60003 2.88521 1.60003 2.43751C 1.59994 1.9898 1.95834 1.62504 2.4 1.62504Z"/>
</defs>
</svg>
