<svg width="44" height="60" viewBox="0 0 44 60" version="1.1" xmlns="http://www.w3.org/2000/svg" xmlns:xlink="http://www.w3.org/1999/xlink">
<title>SP_Icon_8</title>
<desc>Created using Figma</desc>
<g id="Canvas" transform="translate(-4122 3357)">
<g id="SP_Icon_8">
<g id="hourglass">
<g id="Group">
<g id="Group">
<g id="Group">
<g id="Vector">
<use xlink:href="#path0_fill" transform="translate(4122 -3357)" fill="#2D9CDB"/>
</g>
<g id="Vector">
<use xlink:href="#path1_fill" transform="translate(4143.03 -3320)" fill="#2D9CDB"/>
</g>
<g id="Vector">
<use xlink:href="#path2_fill" transform="translate(4128 -3311.89)" fill="#2D9CDB"/>
</g>
<g id="Vector">
<use xlink:href="#path3_fill" transform="translate(4143.03 -3316)" fill="#2D9CDB"/>
</g>
<g id="Vector">
<use xlink:href="#path4_fill" transform="translate(4143.03 -3324)" fill="#2D9CDB"/>
</g>
</g>
</g>
</g>
</g>
<g id="&#226;&#130;&#189;">
<use xlink:href="#path5_fill" transform="translate(4140 -3347.4)" fill="#2D9CDB"/>
</g>
</g>
</g>
<defs>
<path id="path0_fill" d="M 27.0282 29.023C 27.1772 29.023 27.3293 28.9899 27.4722 28.919C 31.8403 26.753 42.0003 20.478 42.0003 8.99998L 42.0003 5.99999C 43.1032 5.99999 44.0003 5.10304 44.0003 3.99995L 44.0003 2.00004C 44.0002 0.896951 43.1032 0 42.0003 0L 2.00005 0C 0.897073 0 -1.35899e-07 0.896951 -1.35899e-07 2.00004L -1.35899e-07 4.00007C -1.35899e-07 5.10304 0.896956 6.00011 2.00005 6.00011L 2.00005 9.0001C 2.00005 21.914 14.9031 29.0121 21.7251 30.9611C 36.1812 35.092 40.0002 45.875 40.0002 50.9999L 40.0002 54.9999C 40.0002 55.5518 40.4482 55.9998 41.0002 55.9998L 42.0001 55.9998L 42.0001 57.9999L 2.00005 57.9999L 2.00005 55.9998L 3.00001 55.9998L 37.0002 55.9998C 37.5522 55.9998 38.0002 55.5518 38.0002 54.9999C 38.0002 54.4479 37.5522 53.9999 37.0002 53.9999L 4.00009 53.9999L 4.00009 50.9999C 4.00009 40.6469 13.3751 34.878 17.4051 32.8789C 17.9001 32.6338 18.1021 32.0338 17.8571 31.5388C 17.6111 31.0449 17.012 30.8418 16.517 31.0869C 12.1522 33.2529 2.00005 39.5269 2.00005 50.9999L 2.00005 53.9999C 0.897073 53.9999 -1.35899e-07 54.8969 -1.35899e-07 55.9999L -1.35899e-07 58C -1.35899e-07 59.1029 0.896956 60 2.00005 60L 42.0001 60C 43.1031 60 44.0002 59.1031 44.0002 58L 44.0002 55.9999C 44.0002 54.897 43.1032 53.9999 42.0001 53.9999L 42.0001 50.9999C 42.0001 38.086 29.0971 30.9879 22.2751 29.0389C 7.81913 24.9079 4.00009 14.1249 4.00009 8.99998L 4.00009 5.00003C 4.00009 4.44808 3.55208 4.00007 3.00013 4.00007L 2.00016 4.00007L 2.00016 2.00004L 42.0003 2.00004L 42.0003 4.00007L 41.0003 4.00007L 7.0001 4.00007C 6.44815 4.00007 6.00014 4.44808 6.00014 5.00003C 6.00014 5.55198 6.44815 5.99999 7.0001 5.99999L 40.0002 5.99999L 40.0002 8.99998C 40.0002 19.3579 30.6172 25.1269 26.5831 27.127C 26.0881 27.372 25.8861 27.972 26.1311 28.467C 26.3062 28.8189 26.6601 29.023 27.0282 29.023Z"/>
<path id="path1_fill" d="M 1.005 1.99992C 1.55801 1.99992 2.00497 1.55191 2.00497 0.999959C 2.00497 0.448007 1.55801 1.02997e-06 1.005 1.02997e-06L 0.995041 1.02997e-06C 0.443086 1.02997e-06 -8.5831e-07 0.448007 -8.5831e-07 0.999959C -8.5831e-07 1.55191 0.45305 1.99992 1.005 1.99992Z"/>
<path id="path2_fill" d="M 0.757114 0.924559C 0.222151 1.0585 -0.103866 1.60155 0.0300799 2.13757C 0.164026 2.67358 0.708129 2.99959 1.24309 2.86459C 1.31903 2.84455 9.05917 0.951629 15.7252 2.85557C 18.1742 3.55553 20.7182 3.78862 23.0222 3.78862C 27.4702 3.78862 31.0212 2.92061 31.2433 2.86459C 31.7783 2.73065 32.1043 2.18761 31.9703 1.65159C 31.8364 1.11663 31.2933 0.790614 30.7573 0.924559C 30.6803 0.943544 22.9403 2.83659 16.2752 0.933582C 9.0982 -1.11837 1.09415 0.839599 0.757114 0.924559Z"/>
<path id="path3_fill" d="M 1.005 1.99992C 1.55801 1.99992 2.00497 1.55191 2.00497 0.999958C 2.00497 0.448006 1.55801 5.14983e-07 1.005 5.14983e-07L 0.995041 5.14983e-07C 0.443086 5.14983e-07 -8.5831e-07 0.448006 -8.5831e-07 0.999958C -8.5831e-07 1.55191 0.45305 1.99992 1.005 1.99992Z"/>
<path id="path4_fill" d="M 1.005 1.99992C 1.55801 1.99992 2.00497 1.55191 2.00497 0.999959C 2.00497 0.448007 1.55801 1.54495e-06 1.005 1.54495e-06L 0.995041 1.54495e-06C 0.443086 1.54495e-06 -8.5831e-07 0.448007 -8.5831e-07 0.999959C -8.5831e-07 1.55191 0.45305 1.99992 1.005 1.99992Z"/>
<path id="path5_fill" d="M 0 5.84789L 1.35687 5.84789L 1.35687 0.287324C 1.83779 0.197183 2.33588 0.129577 2.85115 0.084507C 3.36641 0.0281689 3.91031 0 4.48282 0C 5.07824 0 5.65076 0.0507043 6.20038 0.152113C 6.75 0.253521 7.23092 0.439437 7.64313 0.709859C 8.05534 0.980282 8.38168 1.35211 8.62214 1.82535C 8.87405 2.29859 9 2.90704 9 3.6507C 9 4.33803 8.87977 4.91831 8.63931 5.39155C 8.39886 5.86479 8.07824 6.25352 7.67748 6.55775C 7.27672 6.8507 6.8187 7.06479 6.30343 7.2C 5.78817 7.32394 5.25 7.38592 4.68893 7.38592L 3.52099 7.38592L 3.52099 8.3662L 6.26908 8.3662L 6.26908 9.90422L 3.52099 9.90422L 3.52099 12L 1.35687 12L 1.35687 9.90422L 0 9.90422L 0 8.3662L 1.35687 8.3662L 1.35687 7.38592L 0 7.38592L 0 5.84789ZM 3.52099 5.79718L 4.41412 5.79718C 4.72328 5.79718 5.01527 5.76338 5.29008 5.69577C 5.57634 5.6169 5.82252 5.49859 6.02863 5.34085C 6.23473 5.1831 6.39504 4.97465 6.50954 4.71549C 6.6355 4.44507 6.69847 4.12394 6.69847 3.75211C 6.69847 3.06479 6.50954 2.58028 6.13168 2.29859C 5.75382 2.00563 5.26718 1.85916 4.67176 1.85916C 4.44275 1.85916 4.22519 1.87042 4.01908 1.89296C 3.81298 1.90423 3.64695 1.92113 3.52099 1.94366L 3.52099 5.79718Z"/>
</defs>
</svg>
